# xmcd CD database file
#
# Track frame offsets:
#	150
#	15307
#	31142
#	41772
#	52922
#	66965
#	80985
#	94842
#	108240
#	123545
#	138057
#	152350
#	167262
#	178942
#
# Disc length: 2528 seconds
#
# Revision: 2
# Processed by: cddbd v1.4b41PL1 Copyright (c) Steve Scherf et al.
# Submitted via: Feurio! 1.50.2ß - http://www.feurio.com
#
DISCID=a909de0e
DTITLE=Fredy Sieg - Zickenschulze Aus Bernau
DYEAR=1900
DGENRE=
TTITLE0=Hochzeit Bei Zickenschulze
TTITLE1=Ganz Draußen An Der Panke
TTITLE2=Das Liegt Daran - Sie Hat Die Hosen An (1. Teil)
TTITLE3=Das Liegt Daran - Sie Hat Die Hosen An (2. Teil)
TTITLE4=Ick Bin Ja Dov
TTITLE5=Ick Bin Nen Gemütsmensch
TTITLE6=Das Lied Von Der Krummen Lanke (1. Teil)
TTITLE7=Das Lied Von Der Krummen Lanke (2. Teil)
TTITLE8=Ick Bin Portier
TTITLE9=Reine Wäsche
TTITLE10=Ach, Die Schöne Anglerei
TTITLE11=Die Zille
TTITLE12=Ick Bin Een`n Happen Dämlich (1. Teil)
TTITLE13=Ick Bin Een`n Happen Dämlich (2. Teil)
EXTD=
EXTT0=
EXTT1=
EXTT2=
EXTT3=
EXTT4=
EXTT5=
EXTT6=
EXTT7=
EXTT8=
EXTT9=
EXTT10=
EXTT11=
EXTT12=
EXTT13=
PLAYORDER=
